<svg width="36" height="36" viewBox="0 0 36 36" fill="none" xmlns="http://www.w3.org/2000/svg">
<path d="M31.6207 16.8638C31.5825 16.334 31.1227 15.9363 30.5921 15.9736C30.0623 16.0118 29.6637 16.4723 29.7018 17.0021C29.7255 17.3294 29.7374 17.6653 29.7374 17.9999C29.7374 25.6683 23.4989 31.9068 15.8306 31.9068C8.1623 31.9068 1.92375 25.6682 1.92375 17.9999C1.92375 10.3317 8.1623 4.09311 15.8306 4.09311C18.8675 4.09311 21.7517 5.05414 24.1711 6.87222C24.5959 7.19129 25.1987 7.10572 25.5179 6.68111C25.8371 6.25642 25.7515 5.65342 25.3268 5.33434C22.5714 3.26385 19.2876 2.16943 15.8306 2.16943C7.10163 2.16936 0 9.271 0 17.9999C0 26.7289 7.10163 33.8304 15.8306 33.8304C24.5597 33.8304 31.6612 26.729 31.6612 17.9999C31.6612 17.6193 31.6474 17.2371 31.6207 16.8638Z" fill="white"/>
<path d="M34.9028 4.34322C33.4397 2.88022 31.0591 2.88022 29.596 4.34322L15.7367 18.2024L10.8237 13.2893C9.36065 11.8263 6.98001 11.8263 5.51694 13.2893C4.05388 14.7523 4.05388 17.133 5.51694 18.5961L13.9784 27.0575C14.4632 27.5423 15.1 27.7847 15.7367 27.7847C16.3735 27.7847 17.0103 27.5423 17.4951 27.0575L34.9028 9.64984C36.3657 8.18685 36.3657 5.80635 34.9028 4.34322ZM33.5425 8.28965L16.1348 25.6975C15.9154 25.9168 15.5582 25.9168 15.3388 25.6975L6.87735 17.2359C6.16431 16.5229 6.16431 15.3628 6.87735 14.6498C7.23383 14.2931 7.70205 14.115 8.1704 14.115C8.63875 14.115 9.10703 14.2932 9.46344 14.6498L14.5176 19.704C14.8433 20.0296 15.2764 20.2089 15.7368 20.2089C16.1974 20.2089 16.6305 20.0295 16.9561 19.7039L30.9564 5.70348C31.6692 4.99044 32.8295 4.99044 33.5425 5.70348C34.2555 6.41652 34.2555 7.57661 33.5425 8.28965Z" fill="white"/>
</svg>
