<svg width="44" height="44" viewBox="0 0 44 44" fill="none" xmlns="http://www.w3.org/2000/svg">
<path d="M37.8429 12.621L27.4057 2.18384C27.3186 2.09369 27.2138 2.0224 27.098 1.9744C26.9822 1.92639 26.8577 1.9027 26.7324 1.90479H9.68476C8.67441 1.90479 7.70544 2.30615 6.99102 3.02057C6.2766 3.735 5.87524 4.70396 5.87524 5.71431V38.2857C5.87524 39.2961 6.2766 40.2651 6.99102 40.9795C7.70544 41.6939 8.67441 42.0953 9.68476 42.0953H34.3124C35.3227 42.0953 36.2917 41.6939 37.0061 40.9795C37.7205 40.2651 38.1219 39.2961 38.1219 38.2857V13.2943C38.1211 13.0419 38.0209 12.8 37.8429 12.621ZM34.8705 12.3419H29.1133C28.7345 12.3419 28.3711 12.1914 28.1032 11.9235C27.8353 11.6556 27.6848 11.2922 27.6848 10.9134V5.15622L34.8705 12.3419ZM34.3124 40.1905H9.68762C9.18244 40.1905 8.69796 39.9898 8.34075 39.6326C7.98354 39.2754 7.78286 38.7909 7.78286 38.2857V5.71431C7.78286 5.20914 7.98354 4.72466 8.34075 4.36744C8.69796 4.01023 9.18244 3.80955 9.68762 3.80955H25.7829V10.9134C25.7829 11.7974 26.134 12.6453 26.7592 13.2704C27.3843 13.8955 28.2321 14.2467 29.1162 14.2467H36.22V38.2857C36.22 38.5361 36.1706 38.784 36.0747 39.0153C35.9788 39.2466 35.8383 39.4567 35.6611 39.6336C35.4839 39.8105 35.2736 39.9508 35.0422 40.0463C34.8108 40.1419 34.5628 40.1909 34.3124 40.1905Z" fill="white"/>
<path d="M18.1743 16.5715C18.9372 16.5715 19.6829 16.3452 20.3172 15.9214C20.9515 15.4976 21.4459 14.8952 21.7378 14.1904C22.0298 13.4856 22.1061 12.71 21.9573 11.9618C21.8085 11.2136 21.4411 10.5263 20.9017 9.98691C20.3623 9.44748 19.675 9.08012 18.9268 8.93129C18.1786 8.78246 17.403 8.85885 16.6982 9.15079C15.9934 9.44272 15.391 9.9371 14.9672 10.5714C14.5434 11.2057 14.3171 11.9515 14.3171 12.7143C14.3184 13.7369 14.7252 14.7173 15.4483 15.4403C16.1714 16.1634 17.1517 16.5702 18.1743 16.5715ZM18.1743 10.7619C18.5604 10.7619 18.9379 10.8764 19.259 11.091C19.58 11.3055 19.8303 11.6104 19.9781 11.9672C20.1258 12.3239 20.1645 12.7165 20.0892 13.0952C20.0138 13.4739 19.8279 13.8218 19.5548 14.0949C19.2818 14.3679 18.9339 14.5539 18.5552 14.6292C18.1765 14.7045 17.7839 14.6659 17.4271 14.5181C17.0704 14.3703 16.7655 14.1201 16.5509 13.799C16.3364 13.4779 16.2219 13.1005 16.2219 12.7143C16.2227 12.1968 16.4286 11.7006 16.7946 11.3346C17.1606 10.9686 17.6567 10.7627 18.1743 10.7619Z" fill="white"/>
<path d="M12.5924 23.9524C12.845 23.9524 13.0872 23.852 13.2658 23.6734C13.4444 23.4948 13.5448 23.2526 13.5448 23V22.419C13.546 21.4833 13.9183 20.5863 14.5799 19.9247C15.2416 19.263 16.1386 18.8908 17.0743 18.8895H19.2743C20.21 18.8908 21.107 19.263 21.7686 19.9247C22.4303 20.5863 22.8025 21.4833 22.8038 22.419V23C22.8038 23.2526 22.9041 23.4948 23.0828 23.6734C23.2614 23.852 23.5036 23.9524 23.7562 23.9524C24.0088 23.9524 24.251 23.852 24.4296 23.6734C24.6082 23.4948 24.7086 23.2526 24.7086 23V22.419C24.7068 20.9783 24.1337 19.5971 23.115 18.5784C22.0962 17.5596 20.715 16.9865 19.2743 16.9847H17.0743C15.6336 16.9865 14.2524 17.5596 13.2336 18.5784C12.2149 19.5971 11.6418 20.9783 11.64 22.419V23C11.64 23.2526 11.7403 23.4948 11.9189 23.6734C12.0976 23.852 12.3398 23.9524 12.5924 23.9524Z" fill="white"/>
<path d="M12.0619 30.921H23.6191C23.8716 30.921 24.1139 30.8207 24.2925 30.642C24.4711 30.4634 24.5714 30.2212 24.5714 29.9686C24.5714 29.716 24.4711 29.4738 24.2925 29.2952C24.1139 29.1166 23.8716 29.0162 23.6191 29.0162H12.0619C11.8093 29.0162 11.5671 29.1166 11.3885 29.2952C11.2099 29.4738 11.1095 29.716 11.1095 29.9686C11.1095 30.2212 11.2099 30.4634 11.3885 30.642C11.5671 30.8207 11.8093 30.921 12.0619 30.921Z" fill="white"/>
<path d="M30.1571 34.0314H12.0619C11.8093 34.0314 11.5671 34.1317 11.3885 34.3103C11.2099 34.4889 11.1095 34.7312 11.1095 34.9838C11.1095 35.2363 11.2099 35.4786 11.3885 35.6572C11.5671 35.8358 11.8093 35.9361 12.0619 35.9361H30.1571C30.4097 35.9361 30.652 35.8358 30.8306 35.6572C31.0092 35.4786 31.1095 35.2363 31.1095 34.9838C31.1095 34.7312 31.0092 34.4889 30.8306 34.3103C30.652 34.1317 30.4097 34.0314 30.1571 34.0314Z" fill="white"/>
</svg>
