<svg width="20" height="20" viewBox="0 0 20 20" fill="none" xmlns="http://www.w3.org/2000/svg">
<g clip-path="url(#clip0_4_85)">
<path d="M18.5575 17.5437L14.0426 12.848C15.2034 11.468 15.8395 9.7317 15.8395 7.92414C15.8395 3.70097 12.4035 0.265015 8.18036 0.265015C3.95719 0.265015 0.52124 3.70097 0.52124 7.92414C0.52124 12.1473 3.95719 15.5833 8.18036 15.5833C9.7658 15.5833 11.2766 15.1051 12.5684 14.1973L17.1176 18.9286C17.3077 19.1261 17.5635 19.235 17.8375 19.235C18.0969 19.235 18.343 19.1361 18.5298 18.9563C18.9268 18.5743 18.9394 17.941 18.5575 17.5437ZM8.18036 2.26305C11.302 2.26305 13.8415 4.80255 13.8415 7.92414C13.8415 11.0457 11.302 13.5852 8.18036 13.5852C5.05877 13.5852 2.51927 11.0457 2.51927 7.92414C2.51927 4.80255 5.05877 2.26305 8.18036 2.26305Z" fill="#2E55FA"/>
</g>
<defs>
<clipPath id="clip0_4_85">
<rect width="18.97" height="18.97" fill="white" transform="translate(0.193542 0.265015)"/>
</clipPath>
</defs>
</svg>
