<svg width="35" height="35" viewBox="0 0 35 35" fill="none" xmlns="http://www.w3.org/2000/svg">
<g clip-path="url(#clip0_27_56)">
<path d="M25.1269 17.5621C24.4543 17.2424 23.768 16.967 23.0697 16.7363C25.3313 15.0388 26.7969 12.3358 26.7969 9.29688C26.7969 4.17061 22.6263 0 17.5 0C12.3737 0 8.20313 4.17061 8.20313 9.29688C8.20313 12.3391 9.67204 15.0448 11.9378 16.742C9.86187 17.4254 7.91397 18.4889 6.20909 19.8912C3.08288 22.4627 0.909252 26.0494 0.0887347 29.9908C-0.168433 31.2258 0.139662 32.4943 0.933862 33.4709C1.72416 34.4427 2.89605 35 4.14894 35H20.9863C21.7414 35 22.3535 34.3879 22.3535 33.6328C22.3535 32.8777 21.7414 32.2656 20.9863 32.2656H4.14894C3.56529 32.2656 3.21317 31.9398 3.05526 31.7457C2.78257 31.4104 2.67703 30.9739 2.76569 30.5481C4.18449 23.733 10.1957 18.7547 17.1376 18.5868C17.2578 18.5914 17.3786 18.5938 17.5 18.5938C17.6226 18.5938 17.7446 18.5914 17.866 18.5866C19.9933 18.6365 22.0393 19.122 23.953 20.0318C24.635 20.3558 25.4505 20.0659 25.7747 19.3838C26.0989 18.7019 25.8089 17.8863 25.1269 17.5621ZM17.8335 15.851C17.7225 15.849 17.6114 15.848 17.5 15.848C17.3897 15.848 17.2793 15.8491 17.1691 15.8511C13.7037 15.6782 10.9375 12.8045 10.9375 9.29688C10.9375 5.67827 13.8814 2.73438 17.5 2.73438C21.1186 2.73438 24.0625 5.67827 24.0625 9.29688C24.0625 12.8036 21.2977 15.6768 17.8335 15.851Z" fill="white"/>
<path d="M33.6328 27.1387H29.873V23.3789C29.873 22.6238 29.261 22.0117 28.5059 22.0117C27.7508 22.0117 27.1387 22.6238 27.1387 23.3789V27.1387H23.3789C22.6238 27.1387 22.0117 27.7508 22.0117 28.5059C22.0117 29.261 22.6238 29.873 23.3789 29.873H27.1387V33.6328C27.1387 34.3879 27.7508 35 28.5059 35C29.261 35 29.873 34.3879 29.873 33.6328V29.873H33.6328C34.3879 29.873 35 29.261 35 28.5059C35 27.7508 34.3879 27.1387 33.6328 27.1387Z" fill="white"/>
</g>
<defs>
<clipPath id="clip0_27_56">
<rect width="35" height="35" fill="white"/>
</clipPath>
</defs>
</svg>
